PathFileType	4	(X/Y/Z)	C:/Users/beibeiliu/ov580/test_trc\sequence.38_training_dense_right.trc
DataRate	CameraRate	NumFrames	NumMarkers	Units	OrigDataRate	OrigDataStartFrame	OrigNumFrames
120	120	10	19	mm	120	27	79
Frame#	Time	ThumbCMC			ThumbMCP			ThumbIP			ThumbTip			IndexMCP			IndexPIP			IndexTip			MiddleMCP			MiddlePIP			MiddleTip			RingMCP			RingPIP			RingTip			PinkyMCP			PinkyPIP			PinkyTip			BackHand1			BackHand2			BackHand3	
		X0	Y0	Z0	X1	Y1	Z1	X2	Y2	Z2	X3	Y3	Z3	X4	Y4	Z4	X5	Y5	Z5	X6	Y6	Z6	X7	Y7	Z7	X8	Y8	Z8	X9	Y9	Z9	X10	Y10	Z10	X11	Y11	Z11	X12	Y12	Z12	X13	Y13	Z13	X14	Y14	Z14	X15	Y15	Z15	X16	Y16	Z16	X17	Y17	Z17	X18	Y18	Z18	
26	0.216667	170.611	45.8714	153.882	158.89	53.2213	127.959	152.998	44.0673	101.311	149.082	14.3771	94.3862	186.588	33.1841	86.1564	181.999	28.5257	62.1835	179.614	27.6224	35.1736	184.373	12.4637	80.0072	177.336	9.69798	51.6032	173.922	6.76453	26.5338	176.948	-2.42965	79.9189	172.383	-2.64996	56.6732	169.454	-6.57163	31.655	165.981	-20.3473	92.8168	162.816	-13.9567	72.6909	162.299	-15.5134	50.1204	185.448	-8.28708	133.837	186.711	-11.6537	163.171	196.629	19.9574	150.414	
27	0.225	164.039	50.9728	155.853	151.633	56.4057	125.106	151.346	39.3912	95.7236	150.012	13.4546	91.7975	185.188	35.8097	83.3648	182.524	35.9199	61.0066	182.688	32.5222	34.2039	185.046	17.9553	77.4371	181.024	14.6053	51.8875	179.879	16.2895	22.3704	179.428	-1.33394	82.9434	176.354	2.37709	57.3873	175.257	-2.6688	30.8226	171.521	-15.9168	92.7905	168.422	-17.0105	72.2829	171.434	-9.91071	46.657	187.734	-4.62763	131.499	189.735	-3.50063	165.303	193.255	26.1298	145.89	
28	0.233333	157.77	52.741	151.188	148.77	55.7044	120.054	151.961	43.8621	96.5646	160.362	17.4841	88.3363	187.569	51.6466	81.1188	186.337	50.3946	60.3515	189.011	45.8181	31.7253	193.132	32.2249	75.8775	191.087	31.8317	53.0058	193.766	30.1864	23.3068	192.382	13.6123	78.304	192.381	12.4565	56.233	193.006	13.0507	31.9997	188.11	-4.08287	90.42	187.853	-2.27054	68.5658	192.667	-2.14262	46.9764	197.66	10.4778	133.369	195.874	6.77717	163.99	191.68	41.6923	145.664	
29	0.241667	154.708	49.223	148.726	145.277	50.4345	117.346	156.184	43.2676	87.9256	177.126	20.6504	86.0982	191.161	58.607	79.3615	192.562	59.2439	59.2571	198.763	56.446	35.199	205.256	45.5741	75.1792	206.485	43.8032	50.2516	209.337	47.2636	21.2268	210.236	27.5083	81.2797	212.755	29.5326	55.267	215.955	32.0252	30.4602	211.049	10.657	92.2271	213.993	12.0853	67.3603	220.499	13.9215	47.1341	209.837	26.298	132.438	206.998	21.6497	163.845	188.458	52.5917	148.545	
30	0.25	149.808	39.3117	137.864	145.189	35.3036	107.012	159.312	29.3055	84.0622	183.47	18.0997	80.942	184.565	59.2832	75.5449	194.366	55.079	52.4423	202.939	55.0962	31.5486	206.573	49.9654	73.4351	212.97	48.9876	47.4436	220.175	48.0918	20.9357	219.72	37.6943	79.1507	223.18	38.9941	56.0814	232.99	37.8443	28.8941	223.888	23.1411	92.4948	227.243	24.5356	69.3608	235.945	27.3109	49.2101	212.289	36.6524	132.567	205.395	34.3616	159.709	181.69	53.9281	142.826	
31	0.258333	143.992	23.0351	132.85	143.834	14.9668	99.8942	160.102	10.3462	79.685	188.707	3.73926	77.2905	180.458	42.5582	71.8355	188.429	40.0423	45.1279	201.708	37.0874	24.1307	202.58	40.9568	67.901	210.982	37.1563	45.3835	218.208	36.4077	15.6529	215.365	32.348	75.5063	224.138	30.3642	53.609	229.087	30.4295	30.7762	226.199	20.8224	93.1208	229.47	20.014	71.3852	236.424	23.2332	47.7569	203.461	36.8322	127.937	194.584	38.3344	158.124	173.625	45.065	135.289	
32	0.266667	129.908	8.31518	135.368	132.966	-5.41212	101.598	151.419	-11.2515	79.3864	180.609	-14.5498	81.84	165.118	19.3653	68.5621	171.44	10.9536	40.2662	182.75	5.02255	23.1279	185.706	17.8881	67.4123	192.202	10.1414	41.0498	205.16	4.06302	16.7473	202.153	12.8168	75.1715	208.531	7.24194	53.0704	218.965	1.85184	28.0142	212.64	6.87212	93.3777	221.341	1.1366	72.5901	225.29	-0.200125	46.0063	193.189	28.567	126.265	186.694	30.7188	153.195	160.934	33.6331	127.866	
33	0.275	116.634	-1.4218	142.109	111.998	-20.4673	115.526	128.778	-31.0286	92.6277	160.335	-33.7965	87.4653	140.515	-6.61793	67.7077	145.964	-18.4574	49.4173	157.874	-29.3027	30.571	165.33	-9.31718	71.2037	166.914	-22.0279	46.9963	172.058	-33.2672	24.0436	181.355	-14.7639	74.42	185.552	-24.1354	56.4865	192.01	-34.2811	36.1737	192.717	-15.9983	92.2732	196.854	-25.4538	75.0803	202.898	-30.0613	49.4152	175.63	15.5382	123.63	170.403	22.5214	148.564	140.234	21.9377	131.082	
34	0.283333	103.382	3.36859	147.245	92.5807	-17.8394	123.764	105.049	-32.3093	107.367	131.792	-44.8248	96.8795	118.856	-20.2559	78.8915	113.85	-36.6038	56.9175	120.048	-49.5692	42.3432	132.158	-28.3966	73.3217	132.124	-44.9532	58.4562	132.772	-64.4963	35.2553	149.595	-34.9289	82.3202	150.489	-50.1921	67.9428	147.753	-65.6307	43.658	164.174	-37.3902	97.8363	163.781	-51.5834	82.1149	163.075	-58.6866	60.5841	160.668	0.790052	126.111	159.373	15.7026	150.455	129.561	17.6201	129.589	
35	0.291667	103.844	24.6255	150.88	84.8341	4.93519	126.045	86.9689	-15.7073	108.322	108.965	-33.7577	106.53	102.021	-7.80404	77.6288	96.97	-25.3466	66.2342	91.7187	-39.9338	48.159	115.655	-24.5381	75.7863	106.916	-41.1797	61.933	100.263	-61.2005	44.7516	130.519	-36.1069	87.3753	118.216	-50.6484	69.5827	112.266	-69.2491	51.141	139.664	-41.3595	99.0555	132.756	-52.8883	89.2906	127.522	-65.9762	67.1927	152.494	0.685132	123.313	161.138	14.5026	150.273	135.383	24.8952	129.089	
